<?xml version="1.0" encoding="utf-8"?>
<!-- Generator: Adobe Illustrator 23.0.2, SVG Export Plug-In . SVG Version: 6.00 Build 0)  -->
<svg version="1.1" id="Layer_1" xmlns="http://www.w3.org/2000/svg" xmlns:xlink="http://www.w3.org/1999/xlink" x="0px" y="0px"
	 viewBox="0 0 512 512" enable-background="new 0 0 512 512" xml:space="preserve">
<g>
	<g>
		<g>
			<g>
				<path fill="#00B7DE" d="M175.7,351.4c-53.1,0-96.4-43.3-96.4-96.4c0-24.9,9.5-48.6,26.6-66.5l8.2,7.9
					c-15.1,15.8-23.5,36.7-23.5,58.7c0,46.9,38.1,85.1,85,85.1c46.9,0,85.1-38.2,85.1-85.1v-97.7h11.4v97.7
					C272.1,308.1,228.9,351.4,175.7,351.4z"/>
			</g>
			<g>
				<path fill="#00B7DE" d="M175.7,329.1c-41.3,0-74.9-33.6-74.9-74.9c0-19.4,7.3-37.7,20.7-51.7l8.2,7.9
					c-11.3,11.8-17.5,27.4-17.5,43.9c0,35.1,28.5,63.6,63.5,63.6c35.1,0,63.6-28.5,63.6-63.6v-96.9h11.4v96.9
					C250.7,295.4,217,329.1,175.7,329.1z"/>
			</g>
			<g>
				<path fill="#00B7DE" d="M175.7,306.8c-29.5,0-53.4-24-53.4-53.5c0-13.8,5.2-26.9,14.8-36.9l8.2,7.9c-7.5,7.8-11.6,18.2-11.6,29
					c0,23.2,18.9,42.1,42.1,42.1c23.2,0,42.1-18.9,42.1-42.1v-96.1h11.4v96.1C229.2,282.8,205.2,306.8,175.7,306.8z"/>
			</g>
			<g>
				<path fill="#00B7DE" d="M175.7,284.4c-17.6,0-32-14.3-32-32c0-8.3,3.1-16.1,8.8-22.1l8.2,7.9c-3.7,3.8-5.7,8.9-5.7,14.2
					c0,11.4,9.2,20.6,20.6,20.6c11.4,0,20.6-9.2,20.6-20.6v-95.2h11.4v95.2C207.7,270.1,193.3,284.4,175.7,284.4z"/>
			</g>
		</g>
		<g>
			<g>
				<g>
					<path fill="#00B7DE" d="M400.1,255.1c9.9-7.8,15.9-19.8,15.9-32.7c0-23-18.7-41.6-41.6-41.6h-85.1v11.7h85.1
						c16.5,0,29.9,13.4,29.9,29.9c0,11.8-7,22.5-17.8,27.3l-12.1,5.4l12.1,5.4c10.8,4.8,17.8,15.5,17.8,27.3c0,16.5-13.4,30-29.9,30
						H270.2c-2.7,4.1-5.8,8-9,11.7h113.1c23,0,41.6-18.7,41.6-41.7C416,274.8,410,262.8,400.1,255.1z"/>
				</g>
				<g>
					<path fill="#00B7DE" d="M261.2,329.5c3.2-3.7,6.2-7.6,9-11.7"/>
				</g>
			</g>
			<g>
				<g>
					<path fill="#00B7DE" d="M442.1,218.5c0-33.9-27.6-61.5-61.5-61.5h-91.4v11.4h91.4c27.7,0,50.2,22.5,50.2,50.2
						c0,12.1-4.4,23.8-12.3,32.8l-3.3,3.7l3.3,3.7c7.9,9.1,12.3,20.8,12.3,32.9c0,27.7-22.5,50.2-50.2,50.2h-132
						c-5,4.2-10.5,8-16.2,11.4h148.2c33.9,0,61.5-27.6,61.5-61.5c0-13.2-4.3-26-12.1-36.6C437.9,244.6,442.1,231.8,442.1,218.5z"/>
				</g>
				<g>
					<path fill="#00B7DE" d="M232.4,353.2c5.7-3.3,11.2-7.1,16.2-11.4"/>
				</g>
			</g>
			<g>
				<g>
					<path fill="#00B7DE" d="M362.7,204.7h-73.5v11.4h73.5c5.4,0,9.7,4.3,9.7,9.7c0,2.6-1,5-2.9,6.9c-1.8,1.8-4.2,2.8-6.8,2.8h-73.5
						v11.4h73.5c5.7,0,11-2.2,14.9-6.2c4-4,6.2-9.3,6.2-14.9C383.8,214.2,374.3,204.7,362.7,204.7z"/>
				</g>
			</g>
			<g>
				<g>
					<path fill="#00B7DE" d="M362.7,263.3h-73.8c-0.3,3.8-0.8,7.6-1.4,11.4h75.2c5.4,0,9.7,4.4,9.7,9.7c0,2.6-1,5.1-2.9,6.9
						c-1.8,1.8-4.3,2.8-6.8,2.8h-80.4c-1.4,3.9-3.1,7.7-4.9,11.4h85.4c5.6,0,10.9-2.2,14.8-6.1c4-3.9,6.3-9.3,6.3-15
						C383.8,272.7,374.3,263.3,362.7,263.3z"/>
				</g>
			</g>
		</g>
		<g>
			<path fill="#00B7DE" d="M255.8,420.3c-64.5,0-129-12.9-192.9-38.6l-2.7-1.1l-0.7-2.8c-24.7-97.3-24.7-177.2,0.2-244.3l0.9-2.4
				l2.3-0.9c128.4-51.4,258.3-51.4,386.2,0l2.7,1.1l0.7,2.8c24.7,97.3,24.7,177.2-0.2,244.3l-0.9,2.4l-2.3,0.9
				C384.9,407.4,320.3,420.3,255.8,420.3z M69.8,372.2c123.4,48.9,248.8,48.9,372.7-0.1c22.9-63.7,22.8-139.8-0.3-232.3
				c-123.4-48.9-248.8-48.9-372.7,0.1C46.6,203.6,46.7,279.7,69.8,372.2z"/>
		</g>
	</g>
</g>
</svg>
